<?xml version="1.0" encoding="UTF-8" standalone="no"?>
<!-- Created with Inkscape (http://www.inkscape.org/) -->

<svg
   xmlns:dc="http://purl.org/dc/elements/1.1/"
   xmlns:cc="http://creativecommons.org/ns#"
   xmlns:rdf="http://www.w3.org/1999/02/22-rdf-syntax-ns#"
   xmlns:svg="http://www.w3.org/2000/svg"
   xmlns="http://www.w3.org/2000/svg"
   xmlns:sodipodi="http://sodipodi.sourceforge.net/DTD/sodipodi-0.dtd"
   xmlns:inkscape="http://www.inkscape.org/namespaces/inkscape"
   width="1000"
   height="286.91946"
   viewBox="0 0 100 28.691948"
   version="1.1"
   id="svg8"
   inkscape:version="0.92.4 (5da689c313, 2019-01-14)"
   sodipodi:docname="A.svg">
  <defs
     id="defs2" />
  <sodipodi:namedview
     id="base"
     pagecolor="#ffffff"
     bordercolor="#666666"
     borderopacity="1.0"
     inkscape:pageopacity="0.0"
     inkscape:pageshadow="2"
     inkscape:zoom="0.30656934"
     inkscape:cx="857.09645"
     inkscape:cy="-362.6105"
     inkscape:document-units="px"
     inkscape:current-layer="layer1"
     showgrid="false"
     units="px"
     fit-margin-top="0"
     fit-margin-left="0"
     fit-margin-right="0"
     fit-margin-bottom="0"
     inkscape:window-width="1017"
     inkscape:window-height="1024"
     inkscape:window-x="898"
     inkscape:window-y="-12"
     inkscape:window-maximized="0" />
  <metadata
     id="metadata5">
    <rdf:RDF>
      <cc:Work
         rdf:about="">
        <dc:format>image/svg+xml</dc:format>
        <dc:type
           rdf:resource="http://purl.org/dc/dcmitype/StillImage" />
        <dc:title></dc:title>
      </cc:Work>
    </rdf:RDF>
  </metadata>
  <g
     inkscape:label="Layer 1"
     inkscape:groupmode="layer"
     id="layer1"
     transform="translate(1.3477397,81.767699)">
    <path
       style="fill:#0000a0;fill-opacity:1;stroke:none;stroke-width:0.03905073;stroke-linecap:butt;stroke-linejoin:miter;stroke-opacity:1"
       d="m -1.3477397,-53.731946 v -27.80412 c 0.56483006,0 1.04995324,0.382041 1.71823212,1.093421 l 10.69990058,10.6999 10.699901,-10.6999 c 0.588383,-0.61027 1.063637,-1.093421 1.796333,-1.093421 v 27.80412 h -5.779508 v -13.277248 l -6.716726,6.638624 -6.6230043,-6.638624 -0.01562,13.277248 z"
       id="path31"
       inkscape:connector-curvature="0"
       sodipodi:nodetypes="ccccccccccccc" />
    <path
       inkscape:connector-curvature="0"
       style="fill:#0000a0;fill-opacity:1;stroke:none;stroke-width:0.01562029;stroke-linecap:butt;stroke-linejoin:miter;stroke-opacity:1"
       d="m 38.576447,-81.536061 c -0.590908,0 -0.740103,0.424684 -1.185861,1.405826 l -11.449798,26.398294 h 6.170017 L 33.344869,-56.856 h 9.341057 l 1.234064,3.124059 h 7.247572 L 39.73363,-80.130235 c -0.45464,-0.995434 -0.699902,-1.405826 -1.157183,-1.405826 z m -0.561049,13.246133 2.686568,6.591638 h -5.373137 z"
       id="path41" />
    <path
       inkscape:connector-curvature="0"
       style="fill:#0000a0;fill-opacity:1;stroke:none;stroke-width:0.01562029"
       d="m 53.557588,-81.223655 v 27.491714 h 6.560523 v -10.309393 h 1.640131 c 2.764816,0 3.886984,0.952682 4.838629,3.495337 1.135996,3.008 1.538691,5.084077 1.878096,6.814056 h 7.413232 l -2.258535,-6.560523 c -0.904596,-2.653684 -2.075275,-4.756863 -4.217479,-6.187416 1.746464,-0.731936 3.760159,-3.215063 3.760159,-6.60201 0,-5.320303 -4.188182,-8.141765 -9.539667,-8.141765 z m 6.560523,4.84229 h 1.952536 c 3.066951,0 4.451173,1.432896 4.451173,3.715006 0,2.248509 -1.570071,3.626532 -3.982564,3.626532 h -2.421145 z"
       id="path45" />
    <path
       style="fill:#0000a0;fill-opacity:1;stroke:none;stroke-width:0.01562029"
       d="m 87.645853,-58.25816 c 2.756963,0 3.865207,-1.506218 3.865207,-2.817041 0,-4.860801 -13.336151,-2.607527 -13.336151,-12.215897 0,-2.995659 2.519872,-8.476601 10.091921,-8.476601 4.520341,0 7.873638,2.253102 9.312772,3.770395 l -3.788616,3.97438 c -1.406189,-1.446767 -3.216818,-2.679614 -5.860251,-2.679614 -1.935695,0 -3.05539,0.931969 -3.05539,2.545779 0,4.459078 13.776918,2.753046 13.776918,12.240405 0,4.226726 -3.03718,8.840601 -10.777822,8.840601 -5.397089,0 -8.677101,-2.227391 -10.534407,-4.47387 l 3.817412,-4.024397 c 1.430516,1.69991 3.172855,3.31586 6.488407,3.31586 z"
       id="path49"
       inkscape:connector-curvature="0"
       sodipodi:nodetypes="ccccccccccccc" />
  </g>
</svg>
